<?xml version="1.0" encoding="utf-8"?>
<!-- Generator: Adobe Illustrator 27.2.0, SVG Export Plug-In . SVG Version: 6.00 Build 0)  -->
<svg version="1.1" id="圖層_1" xmlns="http://www.w3.org/2000/svg" xmlns:xlink="http://www.w3.org/1999/xlink" x="0px" y="0px"
	 viewBox="0 0 66 30" style="enable-background:new 0 0 66 30;" xml:space="preserve">
<style type="text/css">
	.st0{fill:#444444;}
</style>
<g>
	<g>
		<g>
			<path class="st0" d="M3.8,15.2c-1.5,3-3.1,6.3-3.5,9.7c-0.2,1.8,0.2,3.8,2,4.5c1.7,0.7,3.6-0.2,5.1-1.1c2.2-1.4,4.2-3.3,5.9-5.3
				c2.5-3,4.6-6.3,6.2-9.8c-1-0.4-1.9-0.8-2.9-1.2c-0.9,3.3-1.9,7-1.7,10.5c0.1,1.9,0.7,4,2.8,4.6c1.8,0.5,3.6-0.5,5-1.6
				c2.1-1.6,3.9-3.7,5.5-5.9c2.1-3,3.9-6.2,5.3-9.6c0.3-0.8-0.4-1.7-1.1-1.9c-0.9-0.3-1.6,0.3-1.9,1.1c-1.9,4.6-4.6,9.2-8.3,12.7
				c-1.1,1-2.2,2-3.4,2.2c0.5-0.1,0,0-0.1,0c0.2,0.1,0.2,0.1,0,0c-0.1-0.1,0.2,0.2-0.1,0c0.3,0.3,0,0-0.1-0.1
				c0.2,0.3-0.2-0.4-0.1-0.2c-0.1-0.3-0.2-0.8-0.2-0.9c-0.4-3.3,0.7-6.8,1.6-9.9c0.5-1.7-2.1-2.9-2.9-1.2c-2.2,4.8-5.3,9.5-9.4,12.9
				c-0.7,0.5-1.4,1-2.1,1.4c-0.4,0.2-0.5,0.3-0.8,0.4c-0.2,0.1-1,0.2-0.6,0.2c-0.1,0-0.3,0-0.4,0c0,0,0.2,0.1,0,0
				c0.2,0.2,0.1,0.1,0,0c0,0.1,0.1,0.2,0.2,0.2c-0.1,0-0.2-0.4-0.1-0.2c0.1,0.2-0.1-0.2-0.1-0.3c0-0.3,0,0.2,0-0.1
				c0-0.2,0-0.4,0-0.6c0.1-2.9,1.8-6.1,3.1-8.7C7.5,15,4.7,13.4,3.8,15.2L3.8,15.2z"/>
		</g>
	</g>
	<g>
		<g>
			<path class="st0" d="M36.1,19.6c2.6-1.4,5.3-2.9,7.3-5.1c1.1-1.1,2.3-2.8,1.9-4.4c-0.8-3.4-5.2-2.3-7.3-1
				c-1.8,1.1-3.3,2.8-4.4,4.6c-1.4,2.4-2.9,5.8-2.3,8.6c0.5,2.5,2.7,3.9,5.1,3.6c2.3-0.2,4.5-1.5,6.4-2.8c4.8-3.3,9.4-7.8,12.6-12.8
				c1-1.5-1.3-3.3-2.5-1.9c-1.9,2.4-4.1,5.1-4.8,8.2c-0.4,1.8-0.2,3.9,1.6,4.9c1.9,1,4.3,0.3,6.2-0.4c3.5-1.5,6.6-3.8,9.5-6.2
				c1.6-1.3-0.7-3.5-2.2-2.2c-2.3,2-4.8,3.8-7.6,5.1c-0.9,0.4-1.7,0.8-2.7,1c-0.6,0.1-1.3,0.2-1.6,0c-0.2-0.1-0.1-0.1-0.2-0.1
				c0.2,0.1,0,0.2,0,0c0-0.1,0.1,0.2,0-0.1c-0.1-0.3,0,0,0-0.2c0-0.1,0-0.3,0-0.4c0-0.2,0.1-0.6,0.2-0.9c0.7-2.4,2.4-4.5,3.9-6.4
				c-0.8-0.6-1.7-1.3-2.5-1.9c-2.3,3.5-5.4,6.6-8.5,9.3c-1.6,1.4-3.3,2.7-5.2,3.7c-1.2,0.6-2.8,1.3-3.7,0.9
				c-0.1-0.1-0.3-0.1-0.4-0.2c-0.5-0.5-0.5-1.2-0.5-1.8c0.1-1.2,0.6-2.5,1.1-3.6c0.7-1.6,1.6-3.1,2.9-4.3c0.9-0.9,1.9-1.4,2.9-1.7
				c0.1,0,0.3-0.1,0.4-0.1c-0.4,0.1,0,0,0.1,0c0.2,0,0.4,0,0.6,0c-0.7-0.1,0.7,0.2-0.1,0c0,0,0.5,0.2,0-0.1c0.2,0.1,0.1,0,0-0.1
				c0.1,0.1,0-0.1,0-0.1c0,0.1,0,0.4,0,0c0,0.1,0,0.2-0.1,0.3c-0.2,0.4,0.2-0.3,0,0.1c-0.1,0.2-0.2,0.3-0.3,0.5
				c-0.2,0.3-0.3,0.4-0.5,0.7c-1.9,2-4.4,3.4-6.8,4.7C32.7,17.8,34.3,20.5,36.1,19.6L36.1,19.6z"/>
		</g>
	</g>
	<g>
		<g>
			<path class="st0" d="M58.1,2.7c-0.1-0.1-0.2-0.1-0.2-0.2c-0.2-0.1-0.4-0.2-0.6-0.2c-0.2,0-0.4,0-0.6,0c-0.2,0-0.4,0.1-0.5,0.3
				c-0.2,0.1-0.3,0.3-0.4,0.4c-0.1,0.1-0.1,0.3-0.2,0.4c-0.1,0.3-0.1,0.6,0,0.8c0.1,0.1,0.1,0.3,0.2,0.4c0.1,0.2,0.3,0.4,0.6,0.6
				c0.1,0.1,0.2,0.1,0.2,0.2c0.2,0.1,0.4,0.2,0.6,0.2c0.2,0,0.4,0,0.6,0c0.2,0,0.4-0.1,0.5-0.3c0.2-0.1,0.3-0.3,0.4-0.4
				c0.1-0.1,0.1-0.3,0.2-0.4c0.1-0.3,0.1-0.6,0-0.8c-0.1-0.1-0.1-0.3-0.2-0.4C58.6,3,58.4,2.9,58.1,2.7L58.1,2.7z"/>
		</g>
	</g>
</g>
</svg>
